{"accessors":[{"bufferView":0,"componentType":5125,"count":51642,"max":[18239.0],"min":[0.0],"type":"SCALAR"},{"bufferView":1,"componentType":5126,"count":18240,"max":[0.0003499999875202775,0.009600000455975533,0.0032212368678301574],"min":[-0.04295000061392784,-0.0003499999875202775,-0.0032500585075467827],"type":"VEC3"},{"bufferView":2,"componentType":5126,"count":18240,"max":[1.0,1.0,1.0],"min":[-1.0,-1.0,-1.0],"type":"VEC3"},{"bufferView":3,"componentType":5125,"count":47574,"max":[15906.0],"min":[0.0],"type":"SCALAR"},{"bufferView":4,"componentType":5126,"count":15907,"max":[0.0,0.002699983073398471,0.002899999963119626],"min":[-0.03999999910593033,-0.0009671933948993683,-0.0063492050394415859],"type":"VEC3"},{"bufferView":5,"componentType":5126,"count":15907,"max":[1.0,1.0,1.0],"min":[-1.0,-1.0,-1.0],"type":"VEC3"},{"bufferView":6,"componentType":5125,"count":3744,"max":[1413.0],"min":[0.0],"type":"SCALAR"},{"bufferView":7,"componentType":5126,"count":1414,"max":[0.0,0.00005999999848427251,3.086198664521311e-18],"min":[-0.03799999877810478,-4.336808689942018e-19,-0.0071000000461936],"type":"VEC3"},{"bufferView":8,"componentType":5126,"count":1414,"max":[1.0,1.0,1.0],"min":[-1.0,-1.0,-1.0],"type":"VEC3"},{"bufferView":9,"componentType":5125,"count":5112,"max":[2129.0],"min":[0.0],"type":"SCALAR"},{"bufferView":10,"componentType":5126,"count":2130,"max":[0.0,0.0005000000237487257,4.7704895589362198e-18],"min":[-0.03799999877810478,-2.168404344971009e-19,-0.005450000055134296],"type":"VEC3"},{"bufferView":11,"componentType":5126,"count":2130,"max":[1.0,1.0,1.0],"min":[-1.0,-1.0,-1.0],"type":"VEC3"},{"bufferView":12,"componentType":5125,"count":59838,"max":[20450.0],"min":[0.0],"type":"SCALAR"},{"bufferView":13,"componentType":5126,"count":20451,"max":[1.8634724839594607e-20,0.0014600000577047468,0.0025359271094202997],"min":[-0.03999999910593033,-0.004399999976158142,-0.009048901498317719],"type":"VEC3"},{"bufferView":14,"componentType":5126,"count":20451,"max":[1.0,1.0,1.0],"min":[-1.0,-1.0,-1.0],"type":"VEC3"},{"bufferView":15,"componentType":5125,"count":334908,"max":[113636.0],"min":[0.0],"type":"SCALAR"},{"bufferView":16,"componentType":5126,"count":113637,"max":[0.0031999999191612007,0.009999997913837433,0.022124383598566057],"min":[-0.01360000018030405,-0.0042196172289550308,-0.08599552512168884],"type":"VEC3"},{"bufferView":17,"componentType":5126,"count":113637,"max":[1.0,1.0,1.0],"min":[-1.0,-1.0,-1.0],"type":"VEC3"},{"bufferView":18,"componentType":5125,"count":100296,"max":[27971.0],"min":[0.0],"type":"SCALAR"},{"bufferView":19,"componentType":5126,"count":27972,"max":[0.05000000074505806,0.010999999940395356,0.01600000075995922],"min":[-0.009999999776482582,0.0,0.0],"type":"VEC3"},{"bufferView":20,"componentType":5126,"count":27972,"max":[1.0,1.0,1.0],"min":[-1.0,-1.0,-1.0],"type":"VEC3"},{"bufferView":21,"componentType":5125,"count":16620,"max":[4826.0],"min":[0.0],"type":"SCALAR"},{"bufferView":22,"componentType":5126,"count":4827,"max":[0.04089999943971634,0.030224662274122239,0.07578662037849426],"min":[0.0005000000237487257,-0.0005158770945854485,0.04982951283454895],"type":"VEC3"},{"bufferView":23,"componentType":5126,"count":4827,"max":[1.0,1.0,1.0],"min":[-1.0,-1.0,-1.0],"type":"VEC3"},{"bufferView":24,"componentType":5125,"count":612,"max":[241.0],"min":[0.0],"type":"SCALAR"},{"bufferView":25,"componentType":5126,"count":242,"max":[0.007493398617953062,0.004000000189989805,0.003432503202930093],"min":[-0.007256601471453905,0.0,-0.0035674970131367447],"type":"VEC3"},{"bufferView":26,"componentType":5126,"count":242,"max":[1.0,1.0,1.0],"min":[-1.0,-1.0,-1.0],"type":"VEC3"}],"asset":{"generator":"SimLab GLTF","version":"2.0"},"bufferViews":[{"buffer":0,"byteLength":206568,"target":34963},{"buffer":0,"byteLength":218880,"byteOffset":206568,"byteStride":12,"target":34962},{"buffer":0,"byteLength":218880,"byteOffset":425448,"byteStride":12,"target":34962},{"buffer":0,"byteLength":190296,"byteOffset":644328,"target":34963},{"buffer":0,"byteLength":190884,"byteOffset":834624,"byteStride":12,"target":34962},{"buffer":0,"byteLength":190884,"byteOffset":1025508,"byteStride":12,"target":34962},{"buffer":0,"byteLength":14976,"byteOffset":1216392,"target":34963},{"buffer":0,"byteLength":16968,"byteOffset":1231368,"byteStride":12,"target":34962},{"buffer":0,"byteLength":16968,"byteOffset":1248336,"byteStride":12,"target":34962},{"buffer":0,"byteLength":20448,"byteOffset":1265304,"target":34963},{"buffer":0,"byteLength":25560,"byteOffset":1285752,"byteStride":12,"target":34962},{"buffer":0,"byteLength":25560,"byteOffset":1311312,"byteStride":12,"target":34962},{"buffer":0,"byteLength":239352,"byteOffset":1336872,"target":34963},{"buffer":0,"byteLength":245412,"byteOffset":1576224,"byteStride":12,"target":34962},{"buffer":0,"byteLength":245412,"byteOffset":1821636,"byteStride":12,"target":34962},{"buffer":0,"byteLength":1339632,"byteOffset":2067048,"target":34963},{"buffer":0,"byteLength":1363644,"byteOffset":3406680,"byteStride":12,"target":34962},{"buffer":0,"byteLength":1363644,"byteOffset":4770324,"byteStride":12,"target":34962},{"buffer":0,"byteLength":401184,"byteOffset":6133968,"target":34963},{"buffer":0,"byteLength":335664,"byteOffset":6535152,"byteStride":12,"target":34962},{"buffer":0,"byteLength":335664,"byteOffset":6870816,"byteStride":12,"target":34962},{"buffer":0,"byteLength":66480,"byteOffset":7206480,"target":34963},{"buffer":0,"byteLength":57924,"byteOffset":7272960,"byteStride":12,"target":34962},{"buffer":0,"byteLength":57924,"byteOffset":7330884,"byteStride":12,"target":34962},{"buffer":0,"byteLength":2448,"byteOffset":7388808,"target":34963},{"buffer":0,"byteLength":2904,"byteOffset":7391256,"byteStride":12,"target":34962},{"buffer":0,"byteLength":2904,"byteOffset":7394160,"byteStride":12,"target":34962}],"buffers":[{"byteLength":7397064,"uri":"file1.bin"}],"extensionsUsed":["KHR_materials_pbrSpecularGlossiness"],"materials":[{"extensions":{"KHR_materials_pbrSpecularGlossiness":{"diffuseFactor":[0.7921568751335144,0.8196078538894653,0.9333333373069763,1.0],"specularFactor":[0.3960784375667572,0.40980392694473269,0.46666666865348818],"glossinessFactor":0.5}},"name":"Mtl","alphaMode":"MASK","doubleSided":true,"pbrMetallicRoughness":{"baseColorFactor":[0.7921568751335144,0.8196078538894653,0.9333333373069763,1.0],"metallicFactor":0.5,"roughnessFactor":0.5}},{"extensions":{"KHR_materials_pbrSpecularGlossiness":{"diffuseFactor":[0.7921568751335144,0.8196078538894653,0.9333333373069763,1.0],"specularFactor":[0.3960784375667572,0.40980392694473269,0.46666666865348818],"glossinessFactor":0.5}},"name":"Mtl1","alphaMode":"MASK","doubleSided":true,"pbrMetallicRoughness":{"baseColorFactor":[0.7921568751335144,0.8196078538894653,0.9333333373069763,1.0],"metallicFactor":0.5,"roughnessFactor":0.5}},{"extensions":{"KHR_materials_pbrSpecularGlossiness":{"diffuseFactor":[0.7921568751335144,0.8196078538894653,0.9333333373069763,1.0],"specularFactor":[0.3960784375667572,0.40980392694473269,0.46666666865348818],"glossinessFactor":0.5}},"name":"Mtl2","alphaMode":"MASK","doubleSided":true,"pbrMetallicRoughness":{"baseColorFactor":[0.7921568751335144,0.8196078538894653,0.9333333373069763,1.0],"metallicFactor":0.5,"roughnessFactor":0.5}},{"extensions":{"KHR_materials_pbrSpecularGlossiness":{"diffuseFactor":[0.7921568751335144,0.8196078538894653,0.9333333373069763,1.0],"specularFactor":[0.3960784375667572,0.40980392694473269,0.46666666865348818],"glossinessFactor":0.5}},"name":"Mtl3","alphaMode":"MASK","doubleSided":true,"pbrMetallicRoughness":{"baseColorFactor":[0.7921568751335144,0.8196078538894653,0.9333333373069763,1.0],"metallicFactor":0.5,"roughnessFactor":0.5}},{"extensions":{"KHR_materials_pbrSpecularGlossiness":{"diffuseFactor":[0.7921568751335144,0.8196078538894653,0.9333333373069763,1.0],"specularFactor":[0.3960784375667572,0.40980392694473269,0.46666666865348818],"glossinessFactor":0.5}},"name":"Mtl4","alphaMode":"MASK","doubleSided":true,"pbrMetallicRoughness":{"baseColorFactor":[0.7921568751335144,0.8196078538894653,0.9333333373069763,1.0],"metallicFactor":0.5,"roughnessFactor":0.5}},{"extensions":{"KHR_materials_pbrSpecularGlossiness":{"diffuseFactor":[0.7921568751335144,0.8196078538894653,0.9333333373069763,1.0],"specularFactor":[0.3960784375667572,0.40980392694473269,0.46666666865348818],"glossinessFactor":0.5}},"name":"Mtl5","alphaMode":"MASK","doubleSided":true,"pbrMetallicRoughness":{"baseColorFactor":[0.7921568751335144,0.8196078538894653,0.9333333373069763,1.0],"metallicFactor":0.5,"roughnessFactor":0.5}},{"extensions":{"KHR_materials_pbrSpecularGlossiness":{"diffuseFactor":[0.7921568751335144,0.8196078538894653,0.9333333373069763,1.0],"specularFactor":[0.3960784375667572,0.40980392694473269,0.46666666865348818],"glossinessFactor":0.5}},"name":"Mtl6","alphaMode":"MASK","doubleSided":true,"pbrMetallicRoughness":{"baseColorFactor":[0.7921568751335144,0.8196078538894653,0.9333333373069763,1.0],"metallicFactor":0.5,"roughnessFactor":0.5}},{"extensions":{"KHR_materials_pbrSpecularGlossiness":{"diffuseFactor":[0.7921568751335144,0.8196078538894653,0.9333333373069763,1.0],"specularFactor":[0.3960784375667572,0.40980392694473269,0.46666666865348818],"glossinessFactor":0.5}},"name":"Mtl7","alphaMode":"MASK","doubleSided":true,"pbrMetallicRoughness":{"baseColorFactor":[0.7921568751335144,0.8196078538894653,0.9333333373069763,1.0],"metallicFactor":0.5,"roughnessFactor":0.5}},{"extensions":{"KHR_materials_pbrSpecularGlossiness":{"diffuseFactor":[0.7921568751335144,0.8196078538894653,0.9333333373069763,1.0],"specularFactor":[0.3960784375667572,0.40980392694473269,0.46666666865348818],"glossinessFactor":0.5}},"name":"Mtl8","alphaMode":"MASK","doubleSided":true,"pbrMetallicRoughness":{"baseColorFactor":[0.7921568751335144,0.8196078538894653,0.9333333373069763,1.0],"metallicFactor":0.5,"roughnessFactor":0.5}}],"meshes":[{"primitives":[{"attributes":{"NORMAL":2,"POSITION":1},"indices":0,"material":0,"mode":4}]},{"primitives":[{"attributes":{"NORMAL":5,"POSITION":4},"indices":3,"material":1,"mode":4}]},{"primitives":[{"attributes":{"NORMAL":8,"POSITION":7},"indices":6,"material":2,"mode":4}]},{"primitives":[{"attributes":{"NORMAL":11,"POSITION":10},"indices":9,"material":3,"mode":4}]},{"primitives":[{"attributes":{"NORMAL":8,"POSITION":7},"indices":6,"material":2,"mode":4}]},{"primitives":[{"attributes":{"NORMAL":14,"POSITION":13},"indices":12,"material":4,"mode":4}]},{"primitives":[{"attributes":{"NORMAL":17,"POSITION":16},"indices":15,"material":5,"mode":4}]},{"primitives":[{"attributes":{"NORMAL":20,"POSITION":19},"indices":18,"material":6,"mode":4}]},{"primitives":[{"attributes":{"NORMAL":23,"POSITION":22},"indices":21,"material":7,"mode":4}]},{"primitives":[{"attributes":{"NORMAL":26,"POSITION":25},"indices":24,"material":8,"mode":4}]},{"primitives":[{"attributes":{"NORMAL":26,"POSITION":25},"indices":24,"material":8,"mode":4}]}],"nodes":[{"children":[1,2,4,15,17,19,21,23],"matrix":[1.0,0.0,0.0,0.0,0.0,4.4896593387466768e-11,-1.0,0.0,0.0,1.0,4.4896593387466768e-11,0.0,0.0,0.0,0.0,1.0]},{"name":"Camera-1","rotation":[-0.7071067690849304,0.0,0.0,-0.7071067690849304],"translation":[0.007154097780585289,-0.6093259453773499,0.01903802715241909]},{"name":"Blade Guard-1","children":[3],"matrix":[-1.0,-5.759281940243e-16,1.0883221407409494e-15,0.0,1.1803685758443638e-15,-0.6999973058700562,0.7141454815864563,0.0,3.505260034359118e-16,0.7141454815864563,0.6999973058700562,0.0,-0.015416541136801243,-0.03929732367396355,-0.0035952460020780565,1.0]},{"name":"Body_1","mesh":0,"rotation":[0.0,0.0,0.0,-1.0]},{"name":"Head Assembly-1","children":[5,7,9,11,13],"rotation":[0.0,0.0,0.0,-1.0]},{"name":"Upper Head-1","children":[6],"rotation":[0.968721330165863,1.5374058274249378e-16,-6.001655653539489e-16,-0.24815115332603455],"translation":[0.02588345855474472,-0.04368710145354271,0.002436817856505513]},{"name":"Body_1","mesh":1,"rotation":[0.0,0.0,0.0,-1.0]},{"name":"Blade-1","children":[8],"rotation":[0.968721330165863,1.5374058274249378e-16,-6.001655653539489e-16,-0.24815115332603455],"translation":[0.024883458390831949,-0.04423193261027336,0.0012257189955562354]},{"name":"Body_1","mesh":2,"rotation":[0.0,0.0,0.0,-1.0]},{"name":"Blade Spacer-1","children":[10],"rotation":[0.968721330165863,1.5374058274249378e-16,-6.001655653539489e-16,-0.24815115332603455],"translation":[0.024883458390831949,-0.04393293708562851,0.0017203924944624305]},{"name":"Body_1","mesh":3,"rotation":[0.0,0.0,0.0,-1.0]},{"name":"Blade-2","children":[12],"rotation":[0.968721330165863,1.5374058274249378e-16,-6.001655653539489e-16,-0.24815115332603455],"translation":[0.024883458390831949,-0.04301973432302475,0.00017969204054679722]},{"name":"Body_1","mesh":4,"rotation":[0.0,0.0,0.0,-1.0]},{"name":"Lower Head-1","children":[14],"rotation":[0.968721330165863,1.5374058274249378e-16,-6.001655653539489e-16,-0.24815115332603455],"translation":[0.02588345855474472,-0.04240846261382103,0.0009368243627250195]},{"name":"Body_1","mesh":5,"rotation":[0.0,0.0,0.0,-1.0]},{"name":"Razor Handle-1","children":[16],"rotation":[-0.7071067690849304,0.0,0.0,-0.7071067690849304],"translation":[0.011083458550274372,0.0012379384133964778,0.017668522894382478]},{"name":"Body_1","mesh":6,"rotation":[0.0,0.0,0.0,-1.0]},{"name":"springs-1","children":[18],"rotation":[-0.8549118638038635,0.0,0.0,-0.5187732577323914],"translation":[-0.0141306072473526,-0.021100014448165895,0.009821646846830845]},{"name":"Body_1","mesh":7,"rotation":[0.0,0.0,0.0,-1.0]},{"name":"hose_windowed_bipass-1","children":[20],"matrix":[-0.9996573328971863,0.01945326291024685,-0.017515797168016435,0.0,-1.484847929356176e-17,0.6691306233406067,0.7431448101997376,0.0,0.026176948100328447,0.7428901791572571,-0.6689013242721558,0.0,0.025316279381513597,-0.10423991084098816,0.0579790398478508,1.0]},{"name":"Body_1","mesh":8,"rotation":[0.0,0.0,0.0,-1.0]},{"name":"finalTop (1)-1","children":[22],"matrix":[0.6857634782791138,0.5214831233024597,-0.5077241659164429,0.0,-0.010196810588240624,-0.690639317035675,-0.7231274843215942,0.0,-0.7277530431747437,0.501071572303772,-0.46829771995544436,0.0,0.03586149960756302,-0.04085836187005043,0.0030359013471752407,1.0]},{"name":"Body_1","mesh":9,"rotation":[0.0,0.0,0.0,-1.0]},{"name":"finalTop (1)-2","children":[24],"matrix":[-0.5513695478439331,0.5824840664863586,-0.5972470045089722,0.0,-0.07400000840425492,-0.7472246289253235,-0.6604387760162354,0.0,-0.8309727311134338,-0.31994953751564028,0.4551007151603699,0.0,-0.02200831100344658,-0.037994615733623508,-0.0002837681386154145,1.0]},{"name":"Body_1","mesh":10,"rotation":[0.0,0.0,0.0,-1.0]}],"scene":0,"scenes":[{"nodes":[0]}]}